<?xml version="1.0" encoding="UTF-8"?>
<svg width="25px" height="26px" viewBox="0 0 25 26" version="1.1" xmlns="http://www.w3.org/2000/svg" xmlns:xlink="http://www.w3.org/1999/xlink">
    <!-- Generator: Sketch 63.1 (92452) - https://sketch.com -->
    <title>ICO/gerenal/github</title>
    <desc>Created with Sketch.</desc>
    <g id="alumni-app" stroke="none" stroke-width="1" fill="none" fill-rule="evenodd" stroke-linecap="round" stroke-linejoin="round">
        <g id="profile-card" transform="translate(-51.000000, -766.000000)" stroke="#549DD8" stroke-width="2">
            <g id="Group-2" transform="translate(52.000000, 679.000000)">
                <g id="ICO/gerenal/github" transform="translate(0.000000, 88.928188)">
                    <path d="M8.25641026,19.7184725 C2.35897436,21.3592362 2.35897436,16.9838662 0,16.436945 M16.5128205,23 L16.5128205,18.7668295 C16.6023237,17.7117061 16.1984767,16.6718073 15.4041026,15.9119006 C19.1076923,15.5290557 23,14.2273831 23,8.25500306 C22.9996973,6.7278097 22.3662522,5.25918592 21.2307692,4.15309368 C21.7684454,2.81697222 21.7304283,1.34011292 21.1246154,0.0293074395 C21.1246154,0.0293074395 19.7328205,-0.353537437 16.5128205,1.64819434 C13.8094466,0.968723165 10.9597842,0.968723165 8.25641026,1.64819434 C5.03641026,-0.353537437 3.64461538,0.0293074395 3.64461538,0.0293074395 C3.03880246,1.34011292 3.00078538,2.81697222 3.53846154,4.15309368 C2.3945089,5.26739068 1.76041133,6.7492883 1.76913999,8.28781834 C1.76913999,14.2164447 5.66153846,15.5181173 9.36512821,15.9447159 C8.58032053,16.6968021 8.17723291,17.7228152 8.25641026,18.7668295 L8.25641026,23" id="Shape"></path>
                </g>
            </g>
        </g>
    </g>
</svg>